<?xml version="1.0" standalone="no"?>
<!DOCTYPE svg PUBLIC "-//W3C//DTD SVG 20010904//EN"
 "http://www.w3.org/TR/2001/REC-SVG-20010904/DTD/svg10.dtd">
<svg version="1.0" xmlns="http://www.w3.org/2000/svg"
 width="700.000000pt" height="700.000000pt" viewBox="0 0 700.000000 700.000000"
 preserveAspectRatio="xMidYMid meet">
<metadata>
Created by potrace 1.14, written by Peter Selinger 2001-2017
</metadata>
<g transform="translate(0.000000,700.000000) scale(0.100000,-0.100000)"
fill="#000000" stroke="none">
<path d="M1603 6983 c-20 -10 -41 -33 -53 -58 -20 -41 -20 -60 -20 -776 1
-733 1 -734 22 -768 26 -41 88 -71 132 -64 30 5 66 20 76 32 3 3 50 47 105 96
55 50 105 95 111 100 133 123 193 177 210 192 11 10 76 68 143 128 67 61 126
111 130 113 5 1 44 -36 87 -84 202 -223 282 -304 353 -355 97 -72 218 -15 223
104 1 32 -34 107 -50 107 -13 1 -160 146 -257 255 -55 61 -109 121 -122 134
l-24 25 48 50 c278 291 373 372 522 441 141 66 311 77 466 31 325 -98 648
-356 669 -536 10 -84 -130 -264 -287 -370 -67 -46 -84 -69 -92 -128 -12 -100
100 -174 195 -128 56 26 169 115 243 191 326 333 276 658 -152 981 -130 97
-286 180 -441 236 -139 49 -345 70 -465 47 -27 -5 -59 -11 -70 -13 -51 -9
-186 -61 -240 -91 -150 -83 -237 -155 -452 -374 l-151 -155 -119 104 c-65 58
-120 107 -123 110 -3 3 -39 34 -80 70 -41 36 -77 67 -80 70 -3 3 -76 67 -162
143 -183 161 -219 178 -295 140z m270 -481 c29 -27 126 -113 216 -192 l163
-144 -48 -44 c-27 -24 -74 -67 -105 -96 -178 -163 -283 -256 -290 -256 -2 0
-4 176 -4 390 0 215 4 390 8 390 5 0 32 -22 60 -48z"/>
<path d="M3930 6312 c-30 -5 -86 -45 -101 -73 -28 -53 -6 -141 44 -173 37 -25
100 -30 135 -12 68 35 98 116 66 178 -13 25 -49 68 -58 68 -1 0 -15 4 -31 8
-17 4 -41 6 -55 4z"/>
<path d="M3505 5565 c-63 -29 -85 -64 -85 -135 0 -32 7 -47 38 -80 38 -40 59
-46 122 -41 79 7 130 102 100 187 -21 60 -114 96 -175 69z"/>
<path d="M85 4346 c-16 -7 -41 -26 -55 -41 l-25 -27 -3 -746 c-2 -696 -1 -749
15 -781 26 -51 66 -76 118 -75 55 2 79 17 195 124 110 101 93 85 210 190 52
47 100 90 106 95 85 78 206 188 238 217 23 21 44 38 47 38 3 0 19 -15 35 -32
223 -251 348 -378 414 -421 59 -38 130 -27 180 28 21 22 25 37 25 85 l0 58
-135 134 c-74 73 -175 178 -223 232 l-89 99 49 50 c142 150 295 298 352 340
79 59 207 122 289 143 87 21 234 21 312 -1 115 -32 233 -83 336 -146 46 -27
89 -56 96 -62 7 -7 29 -24 49 -39 95 -71 186 -181 211 -257 36 -105 -54 -246
-249 -393 -103 -77 -122 -103 -118 -164 4 -68 34 -104 105 -124 46 -13 93 6
186 76 160 120 277 262 330 400 21 55 27 87 27 154 0 148 -58 265 -208 416
-139 140 -284 240 -462 318 -196 86 -335 117 -493 111 -193 -7 -349 -60 -525
-178 -88 -59 -170 -133 -339 -304 -82 -84 -152 -153 -155 -153 -7 0 -27 17
-133 111 -183 163 -291 258 -418 368 -47 41 -98 87 -114 103 -59 58 -126 78
-181 54z m390 -605 c22 -20 86 -77 143 -126 l103 -89 -70 -66 c-39 -36 -85
-78 -103 -94 -18 -16 -71 -63 -117 -105 -46 -42 -89 -80 -95 -86 -7 -5 -23
-20 -37 -33 l-26 -22 1 399 0 399 80 -70 c45 -39 99 -87 121 -107z"/>
<path d="M3960 4342 c-18 -9 -43 -30 -54 -45 -21 -28 -21 -36 -21 -780 l0
-752 24 -33 c25 -36 57 -53 108 -57 53 -4 60 1 323 240 30 28 59 55 66 60 6 6
48 44 93 85 46 41 91 81 101 90 10 8 59 53 110 100 51 47 96 86 100 88 4 1 45
-39 91 -90 163 -180 215 -234 286 -297 85 -77 92 -81 140 -85 110 -10 180 104
127 206 -8 16 -18 28 -22 28 -12 0 -184 171 -267 264 -38 44 -87 97 -108 120
l-38 40 80 80 c43 45 104 106 134 138 47 48 150 143 182 166 209 156 415 201
633 138 335 -96 695 -392 676 -554 -12 -97 -121 -238 -265 -339 -90 -62 -111
-90 -111 -148 -2 -99 92 -165 182 -128 48 20 174 115 246 187 148 149 222 295
222 442 0 173 -134 377 -353 539 -22 17 -42 33 -45 36 -3 3 -44 29 -91 57
-131 79 -299 153 -378 168 -14 3 -28 7 -33 10 -25 16 -176 32 -263 29 -224 -8
-419 -86 -625 -249 -14 -11 -107 -101 -207 -201 -99 -99 -185 -180 -191 -180
-7 0 -249 205 -318 270 -6 5 -44 39 -84 75 -41 36 -97 85 -125 110 -139 123
-188 166 -202 174 -29 16 -89 15 -123 -2z m232 -454 c14 -13 53 -48 88 -78 35
-30 68 -59 74 -65 6 -6 64 -57 129 -114 64 -57 117 -105 117 -106 0 -5 -15
-20 -116 -110 -49 -44 -118 -107 -154 -140 -140 -127 -155 -141 -165 -147 -7
-4 -10 124 -10 388 0 217 3 394 6 394 3 0 17 -10 31 -22z"/>
<path d="M2353 3650 c-44 -27 -65 -63 -67 -113 -1 -82 63 -141 147 -134 101 9
156 121 101 205 -22 34 -74 62 -114 62 -19 0 -49 -9 -67 -20z"/>
<path d="M6233 3650 c-38 -23 -65 -71 -65 -115 0 -71 62 -135 130 -135 144 0
193 193 65 255 -42 20 -92 19 -130 -5z"/>
<path d="M1963 2919 c-77 -38 -98 -139 -42 -203 65 -75 168 -67 219 17 69 112
-58 245 -177 186z"/>
<path d="M5866 2929 c-100 -28 -128 -160 -48 -232 53 -48 140 -40 191 18 87
100 -13 251 -143 214z"/>
<path d="M1605 1676 c-21 -11 -46 -37 -56 -56 -18 -33 -19 -73 -19 -770 0
-716 1 -736 20 -768 40 -66 115 -89 177 -55 26 15 107 83 187 158 6 6 53 48
105 95 52 47 102 92 111 100 9 8 58 53 110 100 52 47 101 92 110 100 9 8 37
34 63 58 l48 43 37 -39 c20 -22 71 -77 112 -123 114 -128 247 -258 298 -290
52 -33 89 -36 138 -13 41 19 53 33 69 80 23 67 6 95 -139 238 -72 72 -171 175
-220 229 l-88 98 93 96 c126 128 179 181 225 223 113 104 258 185 385 216 13
4 69 8 124 10 146 5 242 -21 425 -113 243 -122 449 -326 453 -448 3 -93 -117
-251 -271 -359 -83 -58 -113 -101 -107 -160 9 -100 114 -152 204 -103 82 45
224 167 297 255 58 70 129 202 141 262 13 66 8 173 -12 235 -93 290 -565 629
-970 697 -245 41 -489 -21 -723 -186 -54 -37 -161 -134 -278 -251 l-192 -191
-23 19 c-13 11 -55 47 -93 81 -38 33 -78 69 -90 79 -12 10 -32 28 -46 41 -14
12 -82 71 -150 131 -69 60 -127 112 -130 115 -15 17 -174 152 -193 164 -39 25
-91 26 -132 2z m280 -491 c38 -33 73 -65 79 -70 11 -10 142 -125 205 -180 19
-16 46 -41 60 -53 l26 -24 -25 -20 c-14 -11 -45 -39 -70 -61 -25 -23 -88 -80
-140 -127 -52 -47 -117 -105 -143 -130 -27 -25 -54 -48 -60 -52 -9 -5 -12 89
-12 388 0 217 3 393 6 392 3 -2 37 -30 74 -63z"/>
<path d="M3893 994 c-58 -29 -87 -86 -74 -146 16 -70 65 -111 131 -110 135 2
187 175 75 248 -36 23 -95 27 -132 8z"/>
<path d="M3517 265 c-46 -16 -64 -30 -83 -66 -18 -37 -18 -83 2 -124 44 -94
186 -97 236 -4 58 108 -42 233 -155 194z"/>
</g>
</svg>
